<svg width="362" height="129" viewBox="0 0 362 129" fill="none" xmlns="http://www.w3.org/2000/svg">
<path d="M110.02 79.6758C104.168 81.3232 95.7986 83.959 109.142 81.3232C122.486 78.6874 128.456 78.9441 126.7 81.3237" stroke="#1E1E1E" stroke-width="2" stroke-linecap="round"/>
<path d="M146.5 125.941C179.5 77.9413 226.139 -24.6802 215 6.94122C199.5 50.9414 175 72.9409 146.5 70.9413" stroke="#1E1E1E" stroke-width="2" stroke-linecap="round"/>
<path d="M119.651 80.258C105.188 73.8237 129.293 54.3419 119.651 68.4617C111.937 79.7576 108.67 81.0325 108 80.258" stroke="#1E1E1E" stroke-width="2" stroke-linecap="round"/>
<path d="M127.154 80.258C115.79 73.8237 134.73 54.3419 127.154 68.4617C121.093 79.7576 118.526 81.0325 118 80.258" stroke="#1E1E1E" stroke-width="2" stroke-linecap="round"/>
<path d="M136.819 80.258C123.389 73.8237 145.772 54.3419 136.819 68.4617C129.656 79.7576 126.622 81.0325 126 80.258" stroke="#1E1E1E" stroke-width="2" stroke-linecap="round"/>
<path d="M147.651 79.258C133.188 72.8237 157.293 53.3419 147.651 67.4617C139.937 78.7576 136.67 80.0325 136 79.258" stroke="#1E1E1E" stroke-width="2" stroke-linecap="round"/>
<path d="M157.154 79.258C145.79 72.8237 164.73 53.3419 157.154 67.4617C151.094 78.7576 148.526 80.0325 148 79.258" stroke="#1E1E1E" stroke-width="2" stroke-linecap="round"/>
<path d="M166.819 78.258C153.389 71.8237 175.772 52.3419 166.819 66.4617C159.656 77.7576 156.622 79.0325 156 78.258" stroke="#1E1E1E" stroke-width="2" stroke-linecap="round"/>
<path d="M176.154 78.258C164.79 71.8237 183.73 52.3419 176.154 66.4617C170.094 77.7576 167.526 79.0325 167 78.258" stroke="#1E1E1E" stroke-width="2" stroke-linecap="round"/>
<path d="M186.819 77.258C173.389 70.8237 195.772 51.3419 186.819 65.4617C179.656 76.7576 176.622 78.0325 176 77.258" stroke="#1E1E1E" stroke-width="2" stroke-linecap="round"/>
<path d="M103.5 24.5C80.1667 33.1667 36.225 49.4414 54.625 49.4414C77.625 49.4414 126.125 45.4414 106.625 52.4414C87.1249 59.4414 -19.875 85.9414 4.62505 88.9414C29.125 91.9414 316.5 58.4414 344.5 88.9414" stroke="#1E1E1E" stroke-width="2" stroke-linecap="round"/>
<path d="M130 59.9413C168.667 58.608 251.3 54.5413 272.5 48.9413C299 41.9413 312 36.9413 255 65.4413" stroke="#1E1E1E" stroke-width="2" stroke-linecap="round"/>
<path d="M194 70.8822C232.667 69.5489 320.5 65.9419 341 63.3724C374.24 59.2061 365.5 62.4416 305.5 83.4417" stroke="#1E1E1E" stroke-width="2" stroke-linecap="round"/>
<path d="M237.5 66.9414C241.1 66.5414 245.167 61.1071 245.5 58.9404C245.5 58.9404 215 123.44 224.5 123.44" stroke="#1E1E1E" stroke-width="2" stroke-linecap="round"/>
<path d="M287.453 77.1313C290.291 76.7654 290.737 70.4233 291 68.4414C291 68.4414 266.957 127.441 274.446 127.441" stroke="#1E1E1E" stroke-width="2" stroke-linecap="round"/>
<path d="M169 31.4413C193.5 29.4413 245.3 26.6413 256.5 31.4413" stroke="#1E1E1E" stroke-width="2" stroke-linecap="round"/>
</svg>
