<svg width="439" height="439" viewBox="0 0 439 439" fill="none" xmlns="http://www.w3.org/2000/svg">
<path fill-rule="evenodd" clip-rule="evenodd" d="M64.7371 374.211C-20.7219 288.752 -20.7219 150.196 64.7371 64.7366C150.196 -20.7224 288.752 -20.7224 374.211 64.7366C445.011 135.536 457.156 242.779 410.646 326.081C389.237 310.311 358.942 312.114 339.565 331.491C319.5 351.556 318.279 383.329 335.903 404.818C251.367 458.028 138.352 447.826 64.7371 374.211ZM361.483 385.984C353.321 392.96 344.769 399.238 335.903 404.818C337.044 406.21 338.265 407.559 339.565 408.859C360.93 430.224 395.569 430.224 416.933 408.859C438.298 387.494 438.298 352.855 416.933 331.491C414.945 329.503 412.842 327.699 410.646 326.081C405.522 335.258 399.687 344.144 393.14 352.659C384.096 344.971 370.514 345.397 361.974 353.938C353.152 362.76 352.988 376.962 361.483 385.984ZM361.483 385.984C365.841 382.259 370.088 378.334 374.211 374.211C381.072 367.351 387.381 360.148 393.14 352.659C393.615 353.063 394.078 353.489 394.527 353.938C403.516 362.927 403.516 377.501 394.527 386.49C385.537 395.479 370.963 395.479 361.974 386.49C361.807 386.323 361.643 386.155 361.483 385.984Z" fill="#1F4529"/>
</svg>
