<svg width="500" height="500" viewBox="0 0 500 500" fill="none" xmlns="http://www.w3.org/2000/svg">
<g clip-path="url(#clip0_177_191)">
<rect x="-59" y="250.475" width="437.663" height="437.663" rx="218.831" transform="rotate(-45 -59 250.475)" fill="#EF4040"/>
<rect x="331.881" y="401.176" width="109.416" height="109.416" rx="54.7078" transform="rotate(-45 331.881 401.176)" fill="#FCF9F9"/>
<rect x="376.698" y="401.215" width="46.0364" height="46.0364" rx="23.0182" transform="rotate(-45 376.698 401.215)" fill="#EF4040"/>
<path d="M240.8 334C231.52 334 223.28 331.84 216.08 327.52C209.04 323.04 203.52 317.2 199.52 310C195.52 302.8 193.52 294.96 193.52 286.48C193.52 278.8 195.28 271.6 198.8 264.88C202.48 258.16 207.76 252.88 214.64 249.04C207.92 244.72 202.8 239.36 199.28 232.96C195.76 226.56 194 219.84 194 212.8C194 204.16 196 196.32 200 189.28C204.16 182.24 209.76 176.64 216.8 172.48C223.84 168.16 231.6 166 240.08 166H306.56V186.4H242.72C237.76 186.4 233.36 187.6 229.52 190C225.68 192.4 222.64 195.6 220.4 199.6C218.16 203.44 217.04 207.84 217.04 212.8C217.04 217.44 218.16 221.68 220.4 225.52C222.8 229.36 226 232.48 230 234.88C234 237.12 238.4 238.24 243.2 238.24H297.68V258.64H244.88C238.96 258.64 233.84 260 229.52 262.72C225.36 265.28 222.08 268.72 219.68 273.04C217.44 277.2 216.32 281.68 216.32 286.48C216.32 291.28 217.44 295.76 219.68 299.92C221.92 304.08 225.12 307.44 229.28 310C233.44 312.4 238.32 313.6 243.92 313.6H306.56V334H240.8Z" fill="#FCF9F9"/>
</g>
<defs>
<clipPath id="clip0_177_191">
<rect width="500" height="500" fill="white"/>
</clipPath>
</defs>
</svg>
